<?xml version="1.0" encoding="UTF-8" standalone="no"?>
<svg xmlns:dc="http://purl.org/dc/elements/1.1/" xmlns:cc="http://creativecommons.org/ns#" xmlns:rdf="http://www.w3.org/1999/02/22-rdf-syntax-ns#" xmlns:svg="http://www.w3.org/2000/svg" xmlns="http://www.w3.org/2000/svg" xmlns:sodipodi="http://sodipodi.sourceforge.net/DTD/sodipodi-0.dtd" xmlns:inkscape="http://www.inkscape.org/namespaces/inkscape" width="64px" height="64px" viewBox="0 0 64.000001 64.000001" id="svg6016" version="1.1" inkscape:version="0.91 r13725" sodipodi:docname="12.svg">
  <defs id="defs6018"/>
  <sodipodi:namedview id="base" pagecolor="#ffffff" bordercolor="#666666" borderopacity="1.0" inkscape:pageopacity="0.0" inkscape:pageshadow="2" inkscape:zoom="3.959798" inkscape:cx="-47.815943" inkscape:cy="39.873016" inkscape:document-units="px" inkscape:current-layer="layer1" showgrid="true" units="px" inkscape:snap-bbox="true" inkscape:bbox-nodes="true" inkscape:bbox-paths="true" inkscape:snap-bbox-edge-midpoints="true" inkscape:snap-bbox-midpoints="true" inkscape:window-width="1366" inkscape:window-height="705" inkscape:window-x="-8" inkscape:window-y="-8" inkscape:window-maximized="1">
    <inkscape:grid type="xygrid" id="grid6024"/>
  </sodipodi:namedview>

  <g inkscape:label="Layer 1" inkscape:groupmode="layer" id="layer1" transform="translate(0,-988.36216)">
    <path style="color:#ffffff;font-style:normal;font-variant:normal;font-weight:normal;font-stretch:normal;font-size:medium;line-height:normal;font-family:sans-serif;text-indent:0;text-align:start;text-decoration:none;text-decoration-line:none;text-decoration-style:solid;text-decoration-color:#ffffff;letter-spacing:normal;word-spacing:normal;text-transform:none;direction:ltr;block-progression:tb;writing-mode:lr-tb;baseline-shift:baseline;text-anchor:start;white-space:normal;clip-rule:nonzero;display:inline;overflow:visible;visibility:visible;opacity:1;isolation:auto;mix-blend-mode:normal;color-interpolation:sRGB;color-interpolation-filters:linearRGB;solid-color:#ffffff;solid-opacity:1;fill:#ffffff;fill-opacity:1;fill-rule:nonzero;stroke:none;stroke-width:1.00000012;stroke-linecap:round;stroke-linejoin:round;stroke-miterlimit:4;stroke-dasharray:none;stroke-dashoffset:0;stroke-opacity:1;color-rendering:auto;image-rendering:auto;shape-rendering:auto;text-rendering:auto;enable-background:accumulate" d="m 33.271484,994.64341 a 0.50005,0.50005 0 0 0 -0.492187,0.50781 l 0,0.5 -0.5,0 a 0.50005,0.50005 0 1 0 0,1 l 0.5,0 0,0.5 a 0.50005,0.50005 0 1 0 1,0 l 0,-0.5 0.5,0 a 0.50005,0.50005 0 1 0 0,-1 l -0.5,0 0,-0.5 a 0.50005,0.50005 0 0 0 -0.507813,-0.50781 z m -17.195312,2.29492 a 0.50005,0.50005 0 0 0 -0.34961,0.85938 l 0.353516,0.35351 -0.353516,0.35352 a 0.50005,0.50005 0 1 0 0.707032,0.70703 l 0.353515,-0.35352 0.353516,0.35352 a 0.50005,0.50005 0 1 0 0.707031,-0.70703 l -0.353515,-0.35352 0.353515,-0.35351 a 0.50005,0.50005 0 0 0 -0.363281,-0.85938 0.50005,0.50005 0 0 0 -0.34375,0.15235 l -0.353516,0.35351 -0.353515,-0.35351 a 0.50005,0.50005 0 0 0 -0.357422,-0.15235 z m 37.28125,1.78125 c -4.510581,1e-5 -8.579472,0.76704 -12.232422,2.06642 a 0.50005,0.50005 0 0 0 -0.0293,0.01 c -0.0019,6e-4 -0.0039,0 -0.0059,0 -0.683898,0.2441 -1.357292,0.5008 -2.011719,0.7813 -0.01658,0.01 -0.03422,0.012 -0.05078,0.019 a 0.50005,0.50005 0 0 0 -0.05859,0.031 c -4.110776,1.7786 -7.642052,4.2433 -10.613281,7.0371 -2.540721,2.3891 -4.654822,5.0144 -6.410157,7.6563 -0.720758,-0.35 -1.696011,-0.628 -2.728515,-0.8184 -1.230239,-0.2269 -2.450363,-0.323 -3.341797,-0.064 -0.820848,0.1187 -1.412294,0.8145 -2.017578,1.7422 -0.615625,0.9436 -1.219843,2.1867 -1.792969,3.5586 -1.146251,2.744 -2.16172,5.9968 -2.755859,8.2695 a 0.50005,0.50005 0 0 0 0.728515,0.5625 c 0.951105,-0.538 1.953609,-1.3116 2.884766,-1.9375 0.931157,-0.626 1.813688,-1.0619 2.277344,-1.0586 0.658333,0 0.889737,0.089 1.080078,0.1934 0.160493,0.088 0.372212,0.2513 0.691406,0.4062 a 0.50005,0.50005 0 0 0 0.226563,0.1113 c 1.137699,0.2276 2.409563,0.8903 3.599609,1.795 -0.246264,0.2988 -0.498692,0.5896 -0.738281,0.8925 -1.006946,-0.806 -2.158076,-1.4896 -3.552735,-1.8164 a 0.50005,0.50005 0 0 0 -0.09961,-0.016 l 0,0 a 0.50005,0.50005 0 0 0 -0.474609,0.3027 l -0.728516,1.7012 a 0.50005,0.50005 0 0 0 0.109375,0.5527 l 2.429688,2.3965 c -0.384101,0.5396 -0.782702,1.0898 -1.082032,1.5273 -1.092699,-0.8013 -2.463781,-1.2875 -3.96875,-1.2343 l -0.01367,0 -0.01563,0 c -1.468404,0.1383 -2.694356,1.1823 -3.7265621,2.5566 -1.0322064,1.3744 -1.8935979,3.1183 -2.5957031,4.8398 -1.4042106,3.443 -2.1660157,6.8106 -2.1660157,6.8106 L 4,1048.3622 l 0.765625,-0.1621 c 0,0 3.4007561,-0.7211 6.880859,-2.084 1.740052,-0.6814 3.503028,-1.5222 4.894532,-2.5391 1.389544,-1.0155 2.447142,-2.2307 2.595703,-3.6992 0.173201,-1.3988 -0.284058,-2.8149 -1.16211,-3.9668 0.460019,-0.3132 0.967023,-0.6681 1.533203,-1.0703 l 2.28711,2.2578 a 0.50005,0.50005 0 0 0 0.583984,0.086 l 1.591797,-0.8398 a 0.50005,0.50005 0 0 0 0.255859,-0.541 c -0.252398,-1.262 -0.863382,-2.3239 -1.613281,-3.2715 0.303613,-0.239 0.595119,-0.4907 0.894531,-0.7363 0.897806,1.1857 1.554763,2.4533 1.78125,3.5859 a 0.50005,0.50005 0 0 0 0.0957,0.2051 c 0.156347,0.3331 0.322145,0.5488 0.412109,0.7148 0.104186,0.1924 0.188975,0.4242 0.193359,1.0801 0.0021,0.464 -0.435172,1.3453 -1.0625,2.2754 -0.627327,0.9301 -1.401842,1.9306 -1.941406,2.8808 a 0.50005,0.50005 0 0 0 0.560547,0.7305 c 2.27369,-0.5903 5.529549,-1.6025 8.275391,-2.7441 1.37292,-0.5708 2.615913,-1.1711 3.560546,-1.7852 0.929114,-0.6039 1.628264,-1.1945 1.748047,-2.0156 0.259656,-0.891 0.164256,-2.1093 -0.06055,-3.3399 -0.190274,-1.0416 -0.471305,-2.0247 -0.824218,-2.748 2.644186,-1.7558 5.273,-3.8692 7.664062,-6.4121 2.783716,-2.9605 5.237936,-6.48 7.011719,-10.5742 a 0.50005,0.50005 0 0 0 0.05859,-0.1 c 0.135887,-0.3159 0.249748,-0.6446 0.375,-0.9668 0.102159,-0.2589 0.206096,-0.516 0.302734,-0.7793 0.03937,-0.1081 0.08633,-0.2119 0.125,-0.3203 a 0.50005,0.50005 0 0 0 0.02539,-0.1153 c 1.26555,-3.5943 2.018517,-7.587 2.035156,-12.00584 l 0,-0.002 a 0.50005,0.50005 0 0 0 0.01953,-0.0977 0.50005,0.50005 0 0 0 -0.0098,-0.14844 0.50005,0.50005 0 0 0 -0.03125,-0.0957 0.50005,0.50005 0 0 0 -0.08008,-0.12695 0.50005,0.50005 0 0 0 -0.07227,-0.0684 0.50005,0.50005 0 0 0 -0.04102,-0.0273 0.50005,0.50005 0 0 0 -0.04492,-0.0254 0.50005,0.50005 0 0 0 -0.04492,-0.0195 0.50005,0.50005 0 0 0 -0.04883,-0.0137 0.50005,0.50005 0 0 0 -0.09766,-0.0156 0.50005,0.50005 0 0 0 -0.03516,-0.002 z m -0.554688,1.05469 c -0.05795,3.86663 -0.682891,7.39193 -1.728515,10.59573 l -8.869141,-8.8692 c 3.203761,-1.0456 6.731072,-1.66858 10.597656,-1.72653 z m -28.294922,0.58593 a 0.50004997,0.50004997 0 1 0 0,1 l 5,0 1.984376,0 a 0.50004997,0.50004997 0 1 0 0,-1 l -1.984376,0 -5,0 z m -3,0 c -0.676158,-0.01 -0.676158,1.0096 0,1 l 1,0 c 0.676159,0.01 0.676159,-1.0097 0,-1 l -1,0 z m 3.50586,1 a 0.50030889,0.50030889 0 0 1 0.02539,0.998 l -1.539062,0 c -0.676159,-0.01 -0.676159,1.0096 0,1 l 6.992188,0 c 0.676158,0.01 0.676158,-1.0096 0,-1 l -0.542969,0 a 0.50030896,0.50030896 0 0 1 -0.0059,-0.998 l -1.923828,0 a 0.50030889,0.50030889 0 0 1 0.02539,0.998 l -1.101563,0 a 0.50030896,0.50030896 0 0 1 -0.0059,-0.998 l -1.923828,0 z m 16.144531,0.5058 9.548828,9.5488 c -0.12547,0.3456 -0.257389,0.6858 -0.392578,1.0235 l -10.177734,-10.1797 c 0.337277,-0.135 0.676377,-0.2673 1.021484,-0.3926 z m -2.023437,0.8047 10.769531,10.7715 c -1.707394,3.898 -4.052748,7.2543 -6.722656,10.0937 -2.600728,2.7659 -5.494391,5.0281 -8.375,6.8399 -1.51258,0.8997 -3.21883,1.8608 -4.939453,2.6953 -1.31905,0.6147 -2.599625,1.1398 -3.798829,1.5566 -0.338015,-1.1771 -0.954942,-2.3612 -1.791015,-3.4687 1.294026,-1.1082 2.477915,-2.2463 3.294922,-3.3125 0.494613,-0.6455 0.909388,-1.6117 1.234375,-2.4453 0.324986,-0.8337 0.541015,-1.5274 0.541015,-1.5274 a 0.50005,0.50005 0 0 0 -0.488281,-0.6484 l 0,0 a 0.50005,0.50005 0 0 0 -0.136719,0.02 c 0,0 -0.694029,0.2176 -1.527344,0.5429 -0.833314,0.3252 -1.799819,0.7408 -2.445312,1.2344 -1.065648,0.815 -2.204753,1.995 -3.314453,3.2852 -1.113022,-0.8435 -2.304479,-1.4609 -3.488281,-1.8008 0.429968,-1.2371 0.970591,-2.5601 1.611328,-3.9238 0.85554,-1.7551 1.848476,-3.504 2.796875,-5.0528 1.786749,-2.8026 3.993441,-5.6091 6.683593,-8.1386 2.839857,-2.6703 6.196899,-5.0152 10.095704,-6.7227 z m -13.607422,0.6895 a 0.50030889,0.50030889 0 0 1 0.02539,0.998 l -1.052734,0 c -0.676158,-0.01 -0.676158,1.0096 0,1 l 2.992188,0 c 0.670289,0.01 0.674278,-0.99 0.01562,-0.998 a 0.50030896,0.50030896 0 0 1 -0.0059,0 c -0.0037,0 -0.006,-0 -0.0098,-0 l -0.03516,0 a 0.50030896,0.50030896 0 0 1 -0.0059,-0.998 l -1.923828,0 z m 3.964844,1 c -0.676159,-0.01 -0.676159,1.0096 0,1 0.676158,0.01 0.676158,-1.0097 0,-1 z m 7.933593,0.2578 a 0.50005,0.50005 0 0 0 -0.224609,0.062 c -0.965678,0.5279 -1.894543,1.0929 -2.78711,1.6914 -0.892588,0.5986 -1.747898,1.2312 -2.568359,1.8887 -0.820501,0.6574 -1.605977,1.3402 -2.355469,2.0449 -0.749508,0.7048 -1.464827,1.4313 -2.144531,2.1718 a 0.50005,0.50005 0 0 0 -0.0098,0.012 l -0.941407,1.0996 a 0.50006613,0.50006613 0 1 0 0.759766,0.6504 l 0.939453,-1.0996 -0.0098,0.016 c 0.66373,-0.723 1.360801,-1.4318 2.091797,-2.1192 0.731012,-0.6873 1.495775,-1.3538 2.294922,-1.9941 0.799185,-0.6404 1.631726,-1.2536 2.5,-1.8359 0.868296,-0.5822 1.77247,-1.1334 2.710938,-1.6465 a 0.50005,0.50005 0 0 0 -0.25586,-0.9414 z m -16.136719,4.0371 c -0.38493,0 -0.769745,0.1447 -1.060546,0.4355 -0.581595,0.5816 -0.581595,1.5395 0,2.1211 0.581602,0.5816 1.539498,0.5816 2.121093,0 0.581603,-0.5816 0.581603,-1.5395 0,-2.1211 -0.290797,-0.2908 -0.675616,-0.4355 -1.060547,-0.4355 z m 18.332032,0.01 c -0.26018,0.015 -0.521971,0.057 -0.783203,0.127 -2.089858,0.56 -3.339273,2.7226 -2.779297,4.8125 0.559986,2.0898 2.722642,3.3354 4.8125,2.7754 2.089855,-0.56 3.337309,-2.7207 2.777344,-4.8106 -0.489979,-1.8285 -2.206086,-3.0121 -4.027344,-2.9043 z m -18.332032,0.9864 c 0.126915,0 0.253793,0.051 0.353516,0.1504 0.199453,0.1994 0.199453,0.5075 0,0.707 -0.199447,0.1994 -0.507578,0.1994 -0.707031,0 -0.199447,-0.1995 -0.199447,-0.5076 0,-0.707 0.09973,-0.1 0.226601,-0.1504 0.353515,-0.1504 z m 18.394532,0.012 c 1.361898,-0.083 2.630459,0.7942 2.998047,2.166 0.42009,1.5679 -0.502483,3.1658 -2.070313,3.5859 -1.567833,0.4201 -3.167781,-0.5024 -3.58789,-2.0703 -0.4201,-1.5678 0.504432,-3.1658 2.072265,-3.5859 0.195979,-0.053 0.393334,-0.084 0.587891,-0.096 z m -13.898438,4.8867 a 0.50005,0.50005 0 0 0 -0.375,0.1934 c -0.152782,0.1912 -0.302637,0.3839 -0.451172,0.5761 a 0.50005,0.50005 0 1 0 0.791016,0.6114 c 0.145217,-0.1879 0.292081,-0.3756 0.441406,-0.5625 a 0.50005,0.50005 0 0 0 -0.40625,-0.8184 z m -1.277344,1.7149 a 0.50005,0.50005 0 0 0 -0.416015,0.2128 c -0.140048,0.1939 -0.276156,0.3877 -0.412109,0.5821 a 0.50005,0.50005 0 1 0 0.818359,0.5742 c 0.132922,-0.1902 0.267208,-0.3805 0.404297,-0.5703 a 0.50005,0.50005 0 0 0 -0.394532,-0.7988 z m -7.173828,0.039 c 0.518189,0.016 1.117171,0.08 1.701172,0.1875 0.962744,0.1775 1.751096,0.4766 2.316406,0.7422 -1.939731,3.0729 -3.365408,6.1213 -4.316406,8.8242 -0.08038,-0.052 -0.152473,-0.095 -0.27539,-0.1621 -0.332417,-0.1822 -0.796113,-0.3132 -1.554688,-0.3164 -0.950558,-0.01 -1.872124,0.5767 -2.841797,1.2285 -0.562382,0.378 -1.087712,0.7234 -1.634765,1.0996 0.597058,-2.0988 1.327834,-4.5484 2.259765,-6.7793 0.559401,-1.3391 1.14876,-2.5408 1.707031,-3.3965 0.558273,-0.8557 1.117568,-1.2905 1.335938,-1.3164 a 0.50005,0.50005 0 0 0 0.08594,-0.019 l 0,0 c 0.261212,-0.08 0.698608,-0.1103 1.216796,-0.094 z m 0.869141,1.0781 c -0.333044,0.016 -0.642703,0.061 -0.923828,0.1407 -0.441482,0.061 -0.816328,0.3063 -1.160156,0.6445 -0.3513,0.3454 -0.683478,0.7955 -1.013672,1.3281 a 0.50005,0.50005 0 0 0 -0.01367,0.021 l -0.822266,1.5078 a 0.50005,0.50005 0 0 0 -0.0098,0.022 c -0.112188,0.229 -0.223343,0.4663 -0.333985,0.709 a 0.50005,0.50005 0 1 0 0.910157,0.414 c 0.10401,-0.2281 0.207854,-0.45 0.3125,-0.664 l 0.0039,-0.012 c 0.0019,0 0.004,-0.01 0.0059,-0.012 l 0.806641,-1.4765 c 0.299813,-0.4816 0.595045,-0.8728 0.855468,-1.1289 0.263513,-0.2592 0.48394,-0.3649 0.601563,-0.3789 a 0.50005,0.50005 0 0 0 0.08789,-0.018 c 0.334103,-0.1022 0.968219,-0.1358 1.673828,-0.076 a 0.50005,0.50005 0 1 0 0.08398,-0.9961 l 0,0 c -0.374979,-0.031 -0.731409,-0.045 -1.064453,-0.029 z m 30.171875,4.2754 c -0.693968,-0.04 -1.352792,0.4123 -1.539062,1.1075 -0.21288,0.7945 0.266072,1.625 1.060546,1.8378 0.794484,0.2129 1.625012,-0.266 1.837891,-1.0605 0.212881,-0.7945 -0.266063,-1.6251 -1.060547,-1.8379 -0.09931,-0.027 -0.19969,-0.041 -0.298828,-0.047 z m -0.160156,1 c 0.06448,-0.01 0.131106,-0 0.199218,0.014 0.272459,0.073 0.426521,0.3388 0.353516,0.6113 -0.073,0.2724 -0.338869,0.4265 -0.611328,0.3535 -0.272449,-0.073 -0.426519,-0.3388 -0.353516,-0.6113 0.05476,-0.2043 0.218679,-0.3419 0.41211,-0.3672 z m -34.572266,0.4961 a 0.50005,0.50005 0 0 0 -0.449219,0.3203 c -0.103326,0.2586 -0.204198,0.5212 -0.304687,0.7852 a 0.50005,0.50005 0 1 0 0.933594,0.3555 c 0.09869,-0.2592 0.199657,-0.5166 0.300781,-0.7696 a 0.50005,0.50005 0 0 0 -0.480469,-0.6914 z m 14.40625,1.4004 c -0.07718,0.2174 -0.06943,0.2224 -0.173828,0.4902 -0.311593,0.7993 -0.745085,1.7411 -1.097656,2.2012 -1.406919,1.836 -4.223,4.1353 -6.669922,5.9375 -1.232502,0.9077 -1.452151,1.0175 -2.279297,1.5742 0.55858,-0.8253 0.668102,-1.044 1.578125,-2.2734 1.807576,-2.442 4.113744,-5.2531 5.951172,-6.6582 0.460896,-0.3525 1.402047,-0.7858 2.201172,-1.0977 0.26775,-0.1045 0.272868,-0.096 0.490234,-0.1738 z m 27.8125,4.6758 a 0.50005,0.50005 0 0 0 -0.347656,0.8574 l 0.353516,0.3535 -0.353516,0.3535 a 0.50005,0.50005 0 1 0 0.707031,0.7071 l 0.353516,-0.3535 0.353515,0.3535 a 0.50005,0.50005 0 1 0 0.707032,-0.7071 l -0.353516,-0.3535 0.353516,-0.3535 a 0.50005,0.50005 0 0 0 -0.363282,-0.8574 0.50005,0.50005 0 0 0 -0.34375,0.1504 l -0.353515,0.3535 -0.353516,-0.3535 a 0.50005,0.50005 0 0 0 -0.359375,-0.1504 z m -39.199219,0.057 c 1.045312,0.3145 1.960036,0.8334 2.789063,1.4883 -0.285941,0.3729 -0.581427,0.749 -0.84961,1.1113 -0.110703,0.1496 -0.168429,0.2423 -0.27539,0.3887 l -2.070313,-2.041 0.40625,-0.9473 z m 25.63086,0.3653 c -0.676158,-0.01 -0.676158,1.0096 0,1 l 1,0 c 0.676158,0.01 0.676158,-1.0097 0,-1 l -1,0 z m 3,0 a 0.50004997,0.50004997 0 1 0 0,1 l 5,0 1.986328,0 a 0.50004997,0.50004997 0 1 0 0,-1 l -1.986328,0 -5,0 z m 0.507812,1.0019 a 0.50030889,0.50030889 0 0 1 0.0039,0.9981 l -1.517579,0 c -0.676158,-0.01 -0.676158,1.0096 0,1 l 6.992188,0 c 0.676158,0.01 0.676158,-1.0096 0,-1 l -0.542969,0 a 0.50030896,0.50030896 0 0 1 -0.0059,-0.9981 l -1.923828,0 a 0.50030889,0.50030889 0 0 1 0.0059,0.9981 l -1.082031,0 a 0.50030896,0.50030896 0 0 1 -0.0059,-0.9981 l -1.923828,0 z m -10.46289,0.5781 c 0.266383,0.5667 0.570513,1.3641 0.748047,2.336 0.213427,1.1683 0.248509,2.3938 0.08789,2.916 a 0.50005,0.50005 0 0 0 -0.01758,0.088 c -0.02631,0.2183 -0.461727,0.7772 -1.318359,1.334 -0.856633,0.5569 -2.060349,1.144 -3.400391,1.7011 -2.233242,0.9285 -4.683012,1.6545 -6.783203,2.2481 0.37718,-0.5468 0.724422,-1.0727 1.103515,-1.6348 0.653239,-0.9685 1.236655,-1.8878 1.232422,-2.8379 -0.005,-0.7552 -0.134448,-1.2184 -0.314453,-1.5507 -0.06806,-0.1257 -0.11078,-0.2004 -0.164062,-0.2832 2.703546,-0.9504 5.751585,-2.3768 8.826172,-4.3165 z m 10.976562,1.4219 a 0.50030889,0.50030889 0 0 1 0.0059,0.9981 l -1.033203,0 c -0.676158,-0.01 -0.676158,1.0096 0,1 l 2.992188,0 c 0.670289,0.01 0.674279,-0.99 0.01563,-0.9981 a 0.50030896,0.50030896 0 0 1 -0.0059,0 c -0.0037,0 -0.006,-0 -0.0098,-0 l -0.03516,0 a 0.50030896,0.50030896 0 0 1 -0.0059,-0.9981 l -1.923828,0 z m -24.496094,0.4864 c 0.601985,0.7721 1.053655,1.6005 1.302735,2.5253 l -0.884766,0.4668 -1.904297,-1.8789 c 0.127593,-0.093 0.239267,-0.1699 0.369141,-0.2656 0.363849,-0.268 0.742695,-0.5618 1.117187,-0.8476 z m 28.460938,0.5117 c -0.676158,-0.01 -0.676158,1.0096 0,1 0.676158,0.01 0.676158,-1.0097 0,-1 z m -37.535156,0.7461 c 0.123527,-0 0.244003,0 0.365234,0.01 -0.420234,0.2623 -0.780465,0.6198 -1.068359,1.0332 -0.523751,0.752 -0.870374,1.6732 -1.115235,2.5722 -0.489721,1.7978 -0.566406,3.5332 -0.566406,3.5332 l -0.02539,0.5411 0.539063,-0.02 c 0,0 1.757122,-0.051 3.578125,-0.5136 0.910501,-0.2315 1.84578,-0.5626 2.609375,-1.0762 0.456074,-0.3068 0.839667,-0.7037 1.109375,-1.1719 3.55e-4,0.1537 -0.0063,0.3071 -0.02539,0.459 l 0,0.01 0,0.01 c -0.103318,1.0398 -0.916691,2.0631 -2.193359,2.9961 -1.276669,0.933 -2.977168,1.7512 -4.669922,2.4141 -2.9490582,1.1549 -5.1550923,1.617 -5.8574219,1.7754 0.1676031,-0.6977 0.6547342,-2.8776 1.84375,-5.793 0.6829396,-1.6745 1.5194885,-3.3559 2.4667969,-4.6172 0.94361,-1.2563 1.973666,-2.0512 3.009766,-2.1543 l 0,-0.01 z m 1.611328,0.6015 c 0.640832,-0.018 1.222615,0.1763 1.716797,0.4844 -0.305668,0.4598 -0.644532,0.9746 -0.644532,0.9746 a 0.50005,0.50005 0 0 0 0.689454,0.6914 c 0,0 0.517828,-0.3403 0.996093,-0.6562 0.329956,0.5173 0.492853,1.1063 0.423828,1.6562 l 0,0.01 0,0.01 c -0.06042,0.6081 -0.4241,1.0754 -1.035156,1.4864 -0.611056,0.411 -1.452671,0.7228 -2.296875,0.9375 -1.381324,0.3512 -2.296713,0.3696 -2.75,0.3945 0.03211,-0.4513 0.06545,-1.3483 0.435547,-2.707 0.22683,-0.8327 0.551284,-1.6615 0.970703,-2.2637 0.417164,-0.599 0.889541,-0.9514 1.494141,-1.0117 l 0,-0.01 z m 30.279297,3.9043 a 0.50005,0.50005 0 0 0 -0.410157,0.7559 l 0.248047,0.4297 -0.43164,0.25 a 0.5005087,0.5005087 0 0 0 0.5,0.8672 l 0.43164,-0.25 0.251953,0.4355 a 0.50100375,0.50100375 0 1 0 0.867188,-0.5019 l -0.25,-0.4336 0.431641,-0.25 a 0.50005,0.50005 0 0 0 -0.226563,-0.9375 l 0,0 a 0.50005,0.50005 0 0 0 -0.273437,0.068 l -0.433594,0.25 -0.248047,-0.4297 a 0.50005,0.50005 0 0 0 -0.457031,-0.2559 z" id="circle8816" inkscape:connector-curvature="0"/>
  </g>



	<metadata>
		<rdf:RDF xmlns:rdf="http://www.w3.org/1999/02/22-rdf-syntax-ns#" xmlns:rdfs="http://www.w3.org/2000/01/rdf-schema#" xmlns:dc="http://purl.org/dc/elements/1.1/">
			<rdf:Description about="https://iconscout.com/legal#licenses" dc:title="Campaign, Launch, Startup, Boostup, Rocket, Launching, Mission" dc:description="Campaign, Launch, Startup, Boostup, Rocket, Launching, Mission" dc:publisher="Iconscout" dc:date="2016-12-14" dc:format="image/svg+xml" dc:language="en">
				<dc:creator>
					<rdf:Bag>
						<rdf:li>Jemis Mali</rdf:li>
					</rdf:Bag>
				</dc:creator>
			</rdf:Description>
		</rdf:RDF>
    </metadata></svg>
